<svg xmlns="http://www.w3.org/2000/svg" xml:space="preserve" width="209" height="303" version="1.0" viewBox="0 0 167.184 242.862"><g style="fill:none;fill-rule:nonzero;stroke:#17067a;stroke-width:1.31759644;stroke-linecap:round;stroke-linejoin:round;stroke-miterlimit:4"><path d="M166.934 235.743c0 3.775-3.086 6.87-6.87 6.87H7.214c-3.775 0-6.86-3.095-6.86-6.87V7.318c0-3.78 3.085-6.87 6.86-6.87h152.848c3.785 0 6.87 3.09 6.87 6.87v228.425z" style="fill:#fff;stroke:#000;stroke-width:.50045443;stroke-linecap:butt;stroke-linejoin:miter" transform="matrix(1.0001 0 0 .99809 -.008 .232)"/><path stroke="none" d="M7.647 1.87c-3.213 0-5.801 2.515-5.801 5.642v227.924c0 3.126 2.588 5.641 5.801 5.641h152.074c3.215 0 5.8-2.515 5.8-5.641V7.512c0-3.127-2.585-5.643-5.8-5.643H7.647z" style="fill:#fff;fill-rule:evenodd;stroke:none" transform="matrix(1.0001 0 0 .99809 -.008 .232)"/><path d="M7.647 1.87c-3.213 0-5.801 2.515-5.801 5.642v227.924c0 3.126 2.588 5.641 5.801 5.641h152.074c3.215 0 5.8-2.515 5.8-5.641V7.512c0-3.127-2.585-5.643-5.8-5.643H7.647z" style="stroke-width:2.8515892;stroke-linecap:butt;stroke-linejoin:miter;stroke-miterlimit:10" transform="matrix(1.0001 0 0 .99809 -.008 .232)"/><path stroke="none" d="M9.29 7.405c-.81 0-1.461.634-1.461 1.42v225.297c0 .786.65 1.42 1.46 1.42h148.42c.81 0 1.462-.634 1.462-1.42V8.826c0-.787-.652-1.42-1.462-1.42H9.289z" style="fill:#fff;fill-rule:evenodd;stroke:none" transform="matrix(1.0001 0 0 .99809 -.008 .232)"/><path d="M9.29 7.405c-.81 0-1.461.634-1.461 1.42v225.297c0 .786.65 1.42 1.46 1.42h148.42c.81 0 1.462-.634 1.462-1.42V8.826c0-.787-.652-1.42-1.462-1.42H9.289z" style="stroke-width:2.67783141;stroke-linecap:butt;stroke-linejoin:miter;stroke-miterlimit:10" transform="matrix(1.0001 0 0 .99809 -.008 .232)"/><path stroke="none" d="M38.657 37.114a.693.693 0 0 0-.704.685v168.07c0 .38.314.685.704.685h88.201a.692.692 0 0 0 .704-.686V37.798a.692.692 0 0 0-.704-.684h-88.2z" style="fill:#313390;fill-rule:evenodd;stroke:none" transform="matrix(1.0001 0 0 .99809 -.008 .232)"/><path d="M38.657 37.114a.693.693 0 0 0-.704.685v168.07c0 .38.314.685.704.685h88.201a.692.692 0 0 0 .704-.686V37.798a.692.692 0 0 0-.704-.684h-88.2z" style="stroke-width:1.64236629;stroke-linecap:butt;stroke-linejoin:miter;stroke-miterlimit:10" transform="matrix(1.0001 0 0 .99809 -.008 .232)"/><path stroke="none" d="M52.62 43.074c-4.62 0-8.34 3.619-8.34 8.113V191.76c0 4.494 3.72 8.112 8.34 8.112h59.907c4.62 0 8.34-3.618 8.34-8.112V51.187c0-4.494-3.72-8.113-8.34-8.113H52.62z" style="fill:#fff;fill-rule:evenodd;stroke:none" transform="matrix(1.0001 0 0 .99809 -.008 .232)"/><path d="M52.62 43.074c-4.62 0-8.34 3.619-8.34 8.113V191.76c0 4.494 3.72 8.112 8.34 8.112h59.907c4.62 0 8.34-3.618 8.34-8.112V51.187c0-4.494-3.72-8.113-8.34-8.113H52.62z" style="stroke-width:2.06527543;stroke-linecap:butt;stroke-miterlimit:10" transform="matrix(1.0001 0 0 .99809 -.008 .232)"/><path stroke="none" d="M53.547 49.537c-1.554 0-2.805 1.217-2.805 2.729V190.68c0 1.512 1.251 2.73 2.805 2.73h57.682c1.555 0 2.808-1.218 2.808-2.73V52.266c0-1.512-1.253-2.73-2.808-2.73H53.547z" style="fill:#313390;fill-rule:evenodd;stroke:none" transform="matrix(1.0001 0 0 .99809 -.008 .232)"/><path d="M53.547 49.537c-1.554 0-2.805 1.217-2.805 2.729V190.68c0 1.512 1.251 2.73 2.805 2.73h57.682c1.555 0 2.808-1.218 2.808-2.73V52.266c0-1.512-1.253-2.73-2.808-2.73H53.547z" style="stroke-width:1.79848301;stroke-linecap:butt;stroke-miterlimit:10" transform="matrix(1.0001 0 0 .99809 -.008 .232)"/><path stroke="none" d="M9.415 9.032h6.662L9.48 15.435l-.064-6.403z" style="fill:#17067a;fill-rule:evenodd;stroke:none" transform="matrix(1.0001 0 0 .99809 -.008 .232)"/><path d="M9.415 9.032h6.662L9.48 15.435l-.064-6.403z" style="stroke-width:.86410964;stroke-linecap:butt;stroke-linejoin:miter;stroke-miterlimit:10" transform="matrix(1.0001 0 0 .99809 -.008 .232)"/><path stroke="none" d="M157.482 9.115h-6.662l6.598 6.403.064-6.403z" style="fill:#17067a;fill-rule:evenodd;stroke:none" transform="matrix(1.0001 0 0 .99809 -.008 .232)"/><path d="M157.482 9.115h-6.662l6.598 6.403.064-6.403z" style="stroke-width:.86410964;stroke-linecap:butt;stroke-linejoin:miter;stroke-miterlimit:10" transform="matrix(1.0001 0 0 .99809 -.008 .232)"/><path stroke="none" d="M157.603 234.118h-6.664l6.6-6.401.064 6.401z" style="fill:#17067a;fill-rule:evenodd;stroke:none" transform="matrix(1.0001 0 0 .99809 -.008 .232)"/><path d="M157.603 234.118h-6.664l6.6-6.401.064 6.401z" style="stroke-width:.86410964;stroke-linecap:butt;stroke-linejoin:miter;stroke-miterlimit:10" transform="matrix(1.0001 0 0 .99809 -.008 .232)"/><path stroke="none" d="M9.41 234.085h6.662l-6.598-6.402-.065 6.402z" style="fill:#17067a;fill-rule:evenodd;stroke:none" transform="matrix(1.0001 0 0 .99809 -.008 .232)"/><path d="M9.41 234.085h6.662l-6.598-6.402-.065 6.402z" style="stroke-width:.86410964;stroke-linecap:butt;stroke-linejoin:miter;stroke-miterlimit:10" transform="matrix(1.0001 0 0 .99809 -.008 .232)"/><path stroke="none" d="M11.966 130.632v6.134l22.428-11.47v-6.285l-22.428 11.62z" style="fill:#313390;fill-rule:evenodd;stroke:none" transform="matrix(1.0001 0 0 .99809 -.008 .232)"/><path d="M11.966 130.632v6.134l22.428-11.47v-6.285l-22.428 11.62h0z" style="stroke-width:1.31753135;stroke-miterlimit:10" transform="matrix(1.0001 0 0 .99809 -.008 .232)"/><path stroke="none" d="M12.08 142.231v6.134l22.428-11.471v-6.284L12.08 142.231z" style="fill:#313390;fill-rule:evenodd;stroke:none" transform="matrix(1.0001 0 0 .99809 -.008 .232)"/><path d="M12.08 142.231v6.134l22.428-11.471v-6.284L12.08 142.231h0z" style="stroke-width:1.31753135;stroke-miterlimit:10" transform="matrix(1.0001 0 0 .99809 -.008 .232)"/><path stroke="none" d="M11.854 136.796v-6.134l22.428 11.47v6.285l-22.428-11.621z" style="fill:#fff;fill-rule:evenodd;stroke:none" transform="matrix(1.0001 0 0 .99809 -.008 .232)"/><path d="M11.854 136.796v-6.134l22.428 11.47v6.285l-22.428-11.621h0z" style="stroke-width:1.31753135;stroke-miterlimit:10" transform="matrix(1.0001 0 0 .99809 -.008 .232)"/><path stroke="none" d="M12.13 118.873v6.134l22.428-11.472v-6.283L12.13 118.873z" style="fill:#313390;fill-rule:evenodd;stroke:none" transform="matrix(1.0001 0 0 .99809 -.008 .232)"/><path d="M12.13 118.873v6.134l22.428-11.472v-6.283L12.13 118.873h0z" style="stroke-width:1.31753135;stroke-miterlimit:10" transform="matrix(1.0001 0 0 .99809 -.008 .232)"/><path stroke="none" d="M12.023 125.259v-6.133l22.429 11.47v6.285l-22.43-11.622z" style="fill:#fff;fill-rule:evenodd;stroke:none" transform="matrix(1.0001 0 0 .99809 -.008 .232)"/><path d="M12.023 125.259v-6.133l22.429 11.47v6.285l-22.43-11.622h0z" style="stroke-width:1.31753135;stroke-miterlimit:10" transform="matrix(1.0001 0 0 .99809 -.008 .232)"/><path stroke="none" d="M12.016 107.273v6.134l22.428-11.47v-6.285l-22.428 11.621z" style="fill:#313390;fill-rule:evenodd;stroke:none" transform="matrix(1.0001 0 0 .99809 -.008 .232)"/><path d="M12.016 107.273v6.134l22.428-11.47v-6.285l-22.428 11.621h0z" style="stroke-width:1.31753135;stroke-miterlimit:10" transform="matrix(1.0001 0 0 .99809 -.008 .232)"/><path stroke="none" d="M11.904 113.437v-6.133l22.428 11.471v6.283l-22.428-11.621z" style="fill:#fff;fill-rule:evenodd;stroke:none" transform="matrix(1.0001 0 0 .99809 -.008 .232)"/><path d="M11.904 113.437v-6.133l22.428 11.471v6.283l-22.428-11.621h0z" style="stroke-width:1.31753135;stroke-miterlimit:10" transform="matrix(1.0001 0 0 .99809 -.008 .232)"/><path stroke="none" d="M12.073 101.9v-6.133l22.428 11.472v6.282l-22.428-11.62z" style="fill:#fff;fill-rule:evenodd;stroke:none" transform="matrix(1.0001 0 0 .99809 -.008 .232)"/><path d="M12.073 101.9v-6.133l22.428 11.472v6.282l-22.428-11.62h0z" style="stroke-width:1.31753135;stroke-miterlimit:10" transform="matrix(1.0001 0 0 .99809 -.008 .232)"/><path stroke="none" d="M12.11 153.937v6.132L34.54 148.6v-6.284L12.11 153.937z" style="fill:#313390;fill-rule:evenodd;stroke:none" transform="matrix(1.0001 0 0 .99809 -.008 .232)"/><path d="M12.11 153.937v6.132L34.54 148.6v-6.284L12.11 153.937z" style="stroke-width:1.31753135;stroke-miterlimit:10" transform="matrix(1.0001 0 0 .99809 -.008 .232)"/><path stroke="none" d="M11.885 148.5v-6.133l22.428 11.47v6.286L11.884 148.5z" style="fill:#fff;fill-rule:evenodd;stroke:none" transform="matrix(1.0001 0 0 .99809 -.008 .232)"/><path d="M11.885 148.5v-6.133l22.428 11.47v6.286L11.884 148.5z" style="stroke-width:1.31753135;stroke-miterlimit:10" transform="matrix(1.0001 0 0 .99809 -.008 .232)"/><path stroke="none" d="M11.883 72.185v6.133l22.428-11.47v-6.284L11.883 72.185z" style="fill:#313390;fill-rule:evenodd;stroke:none" transform="matrix(1.0001 0 0 .99809 -.008 .232)"/><path d="M11.883 72.185v6.133l22.428-11.47v-6.284L11.883 72.185z" style="stroke-width:1.31753135;stroke-miterlimit:10" transform="matrix(1.0001 0 0 .99809 -.008 .232)"/><path stroke="none" d="M11.997 83.783v6.135l22.429-11.471v-6.285L11.997 83.783z" style="fill:#313390;fill-rule:evenodd;stroke:none" transform="matrix(1.0001 0 0 .99809 -.008 .232)"/><path d="M11.997 83.783v6.135l22.429-11.471v-6.285L11.997 83.783z" style="stroke-width:1.31753135;stroke-miterlimit:10" transform="matrix(1.0001 0 0 .99809 -.008 .232)"/><path stroke="none" d="M11.771 78.349v-6.134l22.43 11.47v6.285L11.77 78.349z" style="fill:#fff;fill-rule:evenodd;stroke:none" transform="matrix(1.0001 0 0 .99809 -.008 .232)"/><path d="M11.771 78.349v-6.134l22.43 11.47v6.285L11.77 78.349z" style="stroke-width:1.31753135;stroke-miterlimit:10" transform="matrix(1.0001 0 0 .99809 -.008 .232)"/><path stroke="none" d="M12.048 60.424v6.136l22.428-11.473v-6.284L12.048 60.424z" style="fill:#313390;fill-rule:evenodd;stroke:none" transform="matrix(1.0001 0 0 .99809 -.008 .232)"/><path d="M12.048 60.424v6.136l22.428-11.473v-6.284L12.048 60.424z" style="stroke-width:1.31753135;stroke-miterlimit:10" transform="matrix(1.0001 0 0 .99809 -.008 .232)"/><path stroke="none" d="M11.94 66.812v-6.133l22.429 11.47v6.284l-22.43-11.621z" style="fill:#fff;fill-rule:evenodd;stroke:none" transform="matrix(1.0001 0 0 .99809 -.008 .232)"/><path d="M11.94 66.812v-6.133l22.429 11.47v6.284l-22.43-11.621z" style="stroke-width:1.31753135;stroke-miterlimit:10" transform="matrix(1.0001 0 0 .99809 -.008 .232)"/><path stroke="none" d="M11.933 48.826v6.133L34.36 43.49v-6.284L11.933 48.826z" style="fill:#313390;fill-rule:evenodd;stroke:none" transform="matrix(1.0001 0 0 .99809 -.008 .232)"/><path d="M11.933 48.826v6.133L34.36 43.49v-6.284L11.933 48.826z" style="stroke-width:1.31753135;stroke-miterlimit:10" transform="matrix(1.0001 0 0 .99809 -.008 .232)"/><path stroke="none" d="M11.822 54.99v-6.134l22.428 11.47v6.285L11.822 54.99z" style="fill:#fff;fill-rule:evenodd;stroke:none" transform="matrix(1.0001 0 0 .99809 -.008 .232)"/><path d="M11.822 54.99v-6.134l22.428 11.47v6.285L11.822 54.99z" style="stroke-width:1.31753135;stroke-miterlimit:10" transform="matrix(1.0001 0 0 .99809 -.008 .232)"/><path stroke="none" d="M11.99 43.453V37.32l22.428 11.47v6.284L11.99 43.454z" style="fill:#fff;fill-rule:evenodd;stroke:none" transform="matrix(1.0001 0 0 .99809 -.008 .232)"/><path d="M11.99 43.453V37.32l22.428 11.47v6.284L11.99 43.454z" style="stroke-width:1.31753135;stroke-miterlimit:10" transform="matrix(1.0001 0 0 .99809 -.008 .232)"/><path stroke="none" d="M12.029 95.49v6.133L34.457 90.15v-6.283L12.029 95.49z" style="fill:#313390;fill-rule:evenodd;stroke:none" transform="matrix(1.0001 0 0 .99809 -.008 .232)"/><path d="M12.029 95.49v6.133L34.457 90.15v-6.283L12.029 95.49z" style="stroke-width:1.31753135;stroke-miterlimit:10" transform="matrix(1.0001 0 0 .99809 -.008 .232)"/><path stroke="none" d="M11.803 90.053V83.92L34.23 95.391v6.283l-22.427-11.62z" style="fill:#fff;fill-rule:evenodd;stroke:none" transform="matrix(1.0001 0 0 .99809 -.008 .232)"/><path d="M11.803 90.053V83.92L34.23 95.391v6.283l-22.427-11.62z" style="stroke-width:1.31753135;stroke-miterlimit:10" transform="matrix(1.0001 0 0 .99809 -.008 .232)"/><path stroke="none" d="M11.966 188.919v6.135l22.428-11.473v-6.285l-22.428 11.623z" style="fill:#313390;fill-rule:evenodd;stroke:none" transform="matrix(1.0001 0 0 .99809 -.008 .232)"/><path d="M11.966 188.919v6.135l22.428-11.473v-6.285l-22.428 11.623h0z" style="stroke-width:1.31753135;stroke-miterlimit:10" transform="matrix(1.0001 0 0 .99809 -.008 .232)"/><path stroke="none" d="M12.08 200.519v6.132l22.428-11.47v-6.284L12.08 200.52z" style="fill:#313390;fill-rule:evenodd;stroke:none" transform="matrix(1.0001 0 0 .99809 -.008 .232)"/><path d="M12.08 200.519v6.132l22.428-11.47v-6.284L12.08 200.52h0z" style="stroke-width:1.31753135;stroke-miterlimit:10" transform="matrix(1.0001 0 0 .99809 -.008 .232)"/><path stroke="none" d="M11.854 195.084v-6.136l22.428 11.472v6.285l-22.428-11.621z" style="fill:#fff;fill-rule:evenodd;stroke:none" transform="matrix(1.0001 0 0 .99809 -.008 .232)"/><path d="M11.854 195.084v-6.136l22.428 11.472v6.285l-22.428-11.621z" style="stroke-width:1.31753135;stroke-miterlimit:10" transform="matrix(1.0001 0 0 .99809 -.008 .232)"/><path stroke="none" d="M12.13 177.16v6.132l22.428-11.47v-6.284L12.13 177.16z" style="fill:#313390;fill-rule:evenodd;stroke:none" transform="matrix(1.0001 0 0 .99809 -.008 .232)"/><path d="M12.13 177.16v6.132l22.428-11.47v-6.284L12.13 177.16h0z" style="stroke-width:1.31753135;stroke-miterlimit:10" transform="matrix(1.0001 0 0 .99809 -.008 .232)"/><path stroke="none" d="M12.023 183.546v-6.135l22.429 11.473v6.284l-22.43-11.622z" style="fill:#fff;fill-rule:evenodd;stroke:none" transform="matrix(1.0001 0 0 .99809 -.008 .232)"/><path d="M12.023 183.546v-6.135l22.429 11.473v6.284l-22.43-11.622h0z" style="stroke-width:1.31753135;stroke-miterlimit:10" transform="matrix(1.0001 0 0 .99809 -.008 .232)"/><path stroke="none" d="M12.016 165.562v6.132l22.428-11.472v-6.282l-22.428 11.622z" style="fill:#313390;fill-rule:evenodd;stroke:none" transform="matrix(1.0001 0 0 .99809 -.008 .232)"/><path d="M12.016 165.562v6.132l22.428-11.472v-6.282l-22.428 11.622z" style="stroke-width:1.31753135;stroke-miterlimit:10" transform="matrix(1.0001 0 0 .99809 -.008 .232)"/><path stroke="none" d="M11.904 171.725v-6.134l22.428 11.47v6.284l-22.428-11.62z" style="fill:#fff;fill-rule:evenodd;stroke:none" transform="matrix(1.0001 0 0 .99809 -.008 .232)"/><path d="M11.904 171.725v-6.134l22.428 11.47v6.284l-22.428-11.62h0z" style="stroke-width:1.31753135;stroke-miterlimit:10" transform="matrix(1.0001 0 0 .99809 -.008 .232)"/><path stroke="none" d="M12.073 160.188v-6.134l22.428 11.47v6.285l-22.428-11.621z" style="fill:#fff;fill-rule:evenodd;stroke:none" transform="matrix(1.0001 0 0 .99809 -.008 .232)"/><path d="M12.073 160.188v-6.134l22.428 11.47v6.285l-22.428-11.621z" style="stroke-width:1.31753135;stroke-miterlimit:10" transform="matrix(1.0001 0 0 .99809 -.008 .232)"/><path stroke="none" d="M131.938 113.322v-6.136l22.427 11.478v6.286l-22.427-11.628z" style="fill:#313390;fill-rule:evenodd;stroke:none" transform="matrix(1.0001 0 0 .99809 -.008 .232)"/><path d="M131.938 113.322v-6.136l22.427 11.478v6.286l-22.427-11.628h0z" style="stroke-width:1.31753135;stroke-miterlimit:10" transform="matrix(1.0001 0 0 .99809 -.008 .232)"/><path stroke="none" d="M132.05 101.716v-6.137l22.43 11.479v6.287l-22.43-11.63z" style="fill:#313390;fill-rule:evenodd;stroke:none" transform="matrix(1.0001 0 0 .99809 -.008 .232)"/><path d="M132.05 101.716v-6.137l22.43 11.479v6.287l-22.43-11.63z" style="stroke-width:1.31753135;stroke-miterlimit:10" transform="matrix(1.0001 0 0 .99809 -.008 .232)"/><path stroke="none" d="M131.826 107.156v6.136l22.427-11.477v-6.288l-22.427 11.629z" style="fill:#fff;fill-rule:evenodd;stroke:none" transform="matrix(1.0001 0 0 .99809 -.008 .232)"/><path d="M131.826 107.156v6.136l22.427-11.477v-6.288l-22.427 11.629h0z" style="stroke-width:1.31753135;stroke-miterlimit:10" transform="matrix(1.0001 0 0 .99809 -.008 .232)"/><path stroke="none" d="M132.1 125.089v-6.138l22.43 11.478v6.289l-22.43-11.63z" style="fill:#313390;fill-rule:evenodd;stroke:none" transform="matrix(1.0001 0 0 .99809 -.008 .232)"/><path d="M132.1 125.089v-6.138l22.43 11.478v6.289l-22.43-11.63z" style="stroke-width:1.31753135;stroke-miterlimit:10" transform="matrix(1.0001 0 0 .99809 -.008 .232)"/><path stroke="none" d="M131.994 118.699v6.136l22.428-11.477v-6.287l-22.428 11.628z" style="fill:#fff;fill-rule:evenodd;stroke:none" transform="matrix(1.0001 0 0 .99809 -.008 .232)"/><path d="M131.994 118.699v6.136l22.428-11.477v-6.287l-22.428 11.628h0z" style="stroke-width:1.31753135;stroke-miterlimit:10" transform="matrix(1.0001 0 0 .99809 -.008 .232)"/><path stroke="none" d="M131.988 136.694v-6.136l22.428 11.478v6.287l-22.428-11.629z" style="fill:#313390;fill-rule:evenodd;stroke:none" transform="matrix(1.0001 0 0 .99809 -.008 .232)"/><path d="M131.988 136.694v-6.136l22.428 11.478v6.287l-22.428-11.629h0z" style="stroke-width:1.31753135;stroke-miterlimit:10" transform="matrix(1.0001 0 0 .99809 -.008 .232)"/><path stroke="none" d="M131.875 130.528v6.136l22.43-11.476V118.9l-22.43 11.628z" style="fill:#fff;fill-rule:evenodd;stroke:none" transform="matrix(1.0001 0 0 .99809 -.008 .232)"/><path d="M131.875 130.528v6.136l22.43-11.476V118.9l-22.43 11.628z" style="stroke-width:1.31753135;stroke-miterlimit:10" transform="matrix(1.0001 0 0 .99809 -.008 .232)"/><path stroke="none" d="M132.045 142.071v6.138l22.428-11.478v-6.289l-22.428 11.63z" style="fill:#fff;fill-rule:evenodd;stroke:none" transform="matrix(1.0001 0 0 .99809 -.008 .232)"/><path d="M132.045 142.071v6.138l22.428-11.478v-6.289l-22.428 11.63z" style="stroke-width:1.31753135;stroke-miterlimit:10" transform="matrix(1.0001 0 0 .99809 -.008 .232)"/><path stroke="none" d="M132.084 90.005v-6.138l22.428 11.478v6.287l-22.428-11.627z" style="fill:#313390;fill-rule:evenodd;stroke:none" transform="matrix(1.0001 0 0 .99809 -.008 .232)"/><path d="M132.084 90.005v-6.138l22.428 11.478v6.287l-22.428-11.627h0z" style="stroke-width:1.31753135;stroke-miterlimit:10" transform="matrix(1.0001 0 0 .99809 -.008 .232)"/><path stroke="none" d="M131.855 95.443v6.138l22.43-11.478v-6.288l-22.43 11.628z" style="fill:#fff;fill-rule:evenodd;stroke:none" transform="matrix(1.0001 0 0 .99809 -.008 .232)"/><path d="M131.855 95.443v6.138l22.43-11.478v-6.288l-22.43 11.628z" style="stroke-width:1.31753135;stroke-miterlimit:10" transform="matrix(1.0001 0 0 .99809 -.008 .232)"/><path stroke="none" d="M131.854 171.806v-6.139l22.43 11.479v6.287l-22.43-11.627z" style="fill:#313390;fill-rule:evenodd;stroke:none" transform="matrix(1.0001 0 0 .99809 -.008 .232)"/><path d="M131.854 171.806v-6.139l22.43 11.479v6.287l-22.43-11.627z" style="stroke-width:1.31753135;stroke-miterlimit:10" transform="matrix(1.0001 0 0 .99809 -.008 .232)"/><path stroke="none" d="M131.969 160.2v-6.138l22.427 11.477v6.288L131.97 160.2z" style="fill:#313390;fill-rule:evenodd;stroke:none" transform="matrix(1.0001 0 0 .99809 -.008 .232)"/><path d="M131.969 160.2v-6.138l22.427 11.477v6.288L131.97 160.2z" style="stroke-width:1.31753135;stroke-miterlimit:10" transform="matrix(1.0001 0 0 .99809 -.008 .232)"/><path stroke="none" d="M131.744 165.638v6.137l22.428-11.477v-6.288l-22.428 11.628z" style="fill:#fff;fill-rule:evenodd;stroke:none" transform="matrix(1.0001 0 0 .99809 -.008 .232)"/><path d="M131.744 165.638v6.137l22.428-11.477v-6.288l-22.428 11.628z" style="stroke-width:1.31753135;stroke-miterlimit:10" transform="matrix(1.0001 0 0 .99809 -.008 .232)"/><path stroke="none" d="M132.018 183.571v-6.136l22.428 11.476v6.29l-22.428-11.63z" style="fill:#313390;fill-rule:evenodd;stroke:none" transform="matrix(1.0001 0 0 .99809 -.008 .232)"/><path d="M132.018 183.571v-6.136l22.428 11.476v6.29l-22.428-11.63h0z" style="stroke-width:1.31753135;stroke-miterlimit:10" transform="matrix(1.0001 0 0 .99809 -.008 .232)"/><path stroke="none" d="M131.912 177.18v6.137l22.428-11.476v-6.29l-22.428 11.63z" style="fill:#fff;fill-rule:evenodd;stroke:none" transform="matrix(1.0001 0 0 .99809 -.008 .232)"/><path d="M131.912 177.18v6.137l22.428-11.476v-6.29l-22.428 11.63h0z" style="stroke-width:1.31753135;stroke-miterlimit:10" transform="matrix(1.0001 0 0 .99809 -.008 .232)"/><path stroke="none" d="M131.904 195.179v-6.137l22.429 11.477v6.287l-22.429-11.627z" style="fill:#313390;fill-rule:evenodd;stroke:none" transform="matrix(1.0001 0 0 .99809 -.008 .232)"/><path d="M131.904 195.179v-6.137l22.429 11.477v6.287l-22.429-11.627h0z" style="stroke-width:1.31753135;stroke-miterlimit:10" transform="matrix(1.0001 0 0 .99809 -.008 .232)"/><path stroke="none" d="M131.793 189.012v6.135l22.428-11.478v-6.287l-22.428 11.63z" style="fill:#fff;fill-rule:evenodd;stroke:none" transform="matrix(1.0001 0 0 .99809 -.008 .232)"/><path d="M131.793 189.012v6.135l22.428-11.478v-6.287l-22.428 11.63z" style="stroke-width:1.31753135;stroke-miterlimit:10" transform="matrix(1.0001 0 0 .99809 -.008 .232)"/><path stroke="none" d="M131.962 200.556v6.136l22.428-11.477v-6.288l-22.428 11.629z" style="fill:#fff;fill-rule:evenodd;stroke:none" transform="matrix(1.0001 0 0 .99809 -.008 .232)"/><path d="M131.962 200.556v6.136l22.428-11.477v-6.288l-22.428 11.629h0z" style="stroke-width:1.31753135;stroke-miterlimit:10" transform="matrix(1.0001 0 0 .99809 -.008 .232)"/><path stroke="none" d="M132 148.486v-6.135l22.428 11.476v6.287L132 148.486z" style="fill:#313390;fill-rule:evenodd;stroke:none" transform="matrix(1.0001 0 0 .99809 -.008 .232)"/><path d="M132 148.486v-6.135l22.428 11.476v6.287L132 148.486z" style="stroke-width:1.31753135;stroke-miterlimit:10" transform="matrix(1.0001 0 0 .99809 -.008 .232)"/><path stroke="none" d="M131.774 153.927v6.136l22.427-11.478v-6.287l-22.427 11.629z" style="fill:#fff;fill-rule:evenodd;stroke:none" transform="matrix(1.0001 0 0 .99809 -.008 .232)"/><path d="M131.774 153.927v6.136l22.427-11.478v-6.287l-22.427 11.629h0z" style="stroke-width:1.31753135;stroke-miterlimit:10" transform="matrix(1.0001 0 0 .99809 -.008 .232)"/><path stroke="none" d="M131.938 55.001v-6.138l22.427 11.478v6.288L131.938 55z" style="fill:#313390;fill-rule:evenodd;stroke:none" transform="matrix(1.0001 0 0 .99809 -.008 .232)"/><path d="M131.938 55.001v-6.138l22.427 11.478v6.288L131.938 55h0z" style="stroke-width:1.31753135;stroke-miterlimit:10" transform="matrix(1.0001 0 0 .99809 -.008 .232)"/><path stroke="none" d="M132.05 43.395v-6.138l22.43 11.478v6.288l-22.43-11.628z" style="fill:#313390;fill-rule:evenodd;stroke:none" transform="matrix(1.0001 0 0 .99809 -.008 .232)"/><path d="M132.05 43.395v-6.138l22.43 11.478v6.288l-22.43-11.628h0z" style="stroke-width:1.31753135;stroke-miterlimit:10" transform="matrix(1.0001 0 0 .99809 -.008 .232)"/><path stroke="none" d="M131.826 48.833v6.138l22.427-11.478v-6.288l-22.427 11.628z" style="fill:#fff;fill-rule:evenodd;stroke:none" transform="matrix(1.0001 0 0 .99809 -.008 .232)"/><path d="M131.826 48.833v6.138l22.427-11.478v-6.288l-22.427 11.628h0z" style="stroke-width:1.31753135;stroke-miterlimit:10" transform="matrix(1.0001 0 0 .99809 -.008 .232)"/><path stroke="none" d="M132.1 66.767v-6.136l22.43 11.478v6.286L132.1 66.767z" style="fill:#313390;fill-rule:evenodd;stroke:none" transform="matrix(1.0001 0 0 .99809 -.008 .232)"/><path d="M132.1 66.767v-6.136l22.43 11.478v6.286L132.1 66.767h0z" style="stroke-width:1.31753135;stroke-miterlimit:10" transform="matrix(1.0001 0 0 .99809 -.008 .232)"/><path stroke="none" d="M131.994 60.378v6.137l22.428-11.479V48.75l-22.428 11.629z" style="fill:#fff;fill-rule:evenodd;stroke:none" transform="matrix(1.0001 0 0 .99809 -.008 .232)"/><path d="M131.994 60.378v6.137l22.428-11.479V48.75l-22.428 11.629h0z" style="stroke-width:1.31753135;stroke-miterlimit:10" transform="matrix(1.0001 0 0 .99809 -.008 .232)"/><path stroke="none" d="M131.988 78.374v-6.137l22.428 11.476v6.288l-22.428-11.627z" style="fill:#313390;fill-rule:evenodd;stroke:none" transform="matrix(1.0001 0 0 .99809 -.008 .232)"/><path d="M131.988 78.374v-6.137l22.428 11.476v6.288l-22.428-11.627h0z" style="stroke-width:1.31753135;stroke-miterlimit:10" transform="matrix(1.0001 0 0 .99809 -.008 .232)"/><path stroke="none" d="M131.875 72.207v6.137l22.43-11.479v-6.288l-22.43 11.63z" style="fill:#fff;fill-rule:evenodd;stroke:none" transform="matrix(1.0001 0 0 .99809 -.008 .232)"/><path d="M131.875 72.207v6.137l22.43-11.479v-6.288l-22.43 11.63z" style="stroke-width:1.31753135;stroke-miterlimit:10" transform="matrix(1.0001 0 0 .99809 -.008 .232)"/><path stroke="none" d="M132.045 83.75v6.137l22.428-11.477v-6.287L132.045 83.75z" style="fill:#fff;fill-rule:evenodd;stroke:none" transform="matrix(1.0001 0 0 .99809 -.008 .232)"/><path d="M132.045 83.75v6.137l22.428-11.477v-6.287L132.045 83.75z" style="stroke-width:1.31753135;stroke-miterlimit:10" transform="matrix(1.0001 0 0 .99809 -.008 .232)"/><path stroke="none" d="M68.547 11.51h-6.29l11.765 21.815h6.446L68.548 11.51z" style="fill:#313390;fill-rule:evenodd;stroke:none" transform="matrix(1.0001 0 0 .99809 -.008 .232)"/><path d="M68.547 11.51h-6.29l11.765 21.815h6.446L68.548 11.51z" style="stroke-width:1.31753135;stroke-miterlimit:10" transform="matrix(1.0001 0 0 .99809 -.008 .232)"/><path stroke="none" d="M56.652 11.622h-6.29l11.764 21.815h6.445L56.65 11.622z" style="fill:#313390;fill-rule:evenodd;stroke:none" transform="matrix(1.0001 0 0 .99809 -.008 .232)"/><path d="M56.652 11.622h-6.29l11.764 21.815h6.445L56.65 11.622z" style="stroke-width:1.31753135;stroke-miterlimit:10" transform="matrix(1.0001 0 0 .99809 -.008 .232)"/><path stroke="none" d="M62.227 11.402h6.29L56.753 33.217h-6.444l11.918-21.815z" style="fill:#fff;fill-rule:evenodd;stroke:none" transform="matrix(1.0001 0 0 .99809 -.008 .232)"/><path d="M62.227 11.402h6.29L56.753 33.217h-6.444l11.918-21.815z" style="stroke-width:1.31753135;stroke-miterlimit:10" transform="matrix(1.0001 0 0 .99809 -.008 .232)"/><path stroke="none" d="M80.609 11.67h-6.291l11.764 21.815h6.445L80.61 11.669z" style="fill:#313390;fill-rule:evenodd;stroke:none" transform="matrix(1.0001 0 0 .99809 -.008 .232)"/><path d="M80.609 11.67h-6.291l11.764 21.815h6.445L80.61 11.669h0z" style="stroke-width:1.31753135;stroke-miterlimit:10" transform="matrix(1.0001 0 0 .99809 -.008 .232)"/><path stroke="none" d="M74.059 11.566h6.29L68.586 33.382H62.14L74.06 11.566z" style="fill:#fff;fill-rule:evenodd;stroke:none" transform="matrix(1.0001 0 0 .99809 -.008 .232)"/><path d="M74.059 11.566h6.29L68.586 33.382H62.14L74.06 11.566h0z" style="stroke-width:1.31753135;stroke-miterlimit:10" transform="matrix(1.0001 0 0 .99809 -.008 .232)"/><path stroke="none" d="M116.46 11.66h-6.29l11.765 21.815h6.444L116.46 11.66z" style="fill:#313390;fill-rule:evenodd;stroke:none" transform="matrix(1.0001 0 0 .99809 -.008 .232)"/><path d="M116.46 11.66h-6.29l11.765 21.815h6.444L116.46 11.66z" style="stroke-width:1.31753135;stroke-miterlimit:10" transform="matrix(1.0001 0 0 .99809 -.008 .232)"/><path stroke="none" d="M92.504 11.558h-6.29l11.765 21.817h6.446L92.504 11.558z" style="fill:#313390;fill-rule:evenodd;stroke:none" transform="matrix(1.0001 0 0 .99809 -.008 .232)"/><path d="M92.504 11.558h-6.29l11.765 21.817h6.446L92.504 11.558z" style="stroke-width:1.31753135;stroke-miterlimit:10" transform="matrix(1.0001 0 0 .99809 -.008 .232)"/><path stroke="none" d="M86.184 11.45h6.289L80.71 33.266h-6.445L86.184 11.45z" style="fill:#fff;fill-rule:evenodd;stroke:none" transform="matrix(1.0001 0 0 .99809 -.008 .232)"/><path d="M86.184 11.45h6.289L80.71 33.266h-6.445L86.184 11.45h0z" style="stroke-width:1.31753135;stroke-miterlimit:10" transform="matrix(1.0001 0 0 .99809 -.008 .232)"/><path stroke="none" d="M104.564 11.771h-6.29l11.765 21.815h6.443l-11.918-21.815z" style="fill:#313390;fill-rule:evenodd;stroke:none" transform="matrix(1.0001 0 0 .99809 -.008 .232)"/><path d="M104.564 11.771h-6.29l11.765 21.815h6.443l-11.918-21.815h0z" style="stroke-width:1.31753135;stroke-miterlimit:10" transform="matrix(1.0001 0 0 .99809 -.008 .232)"/><path stroke="none" d="M98.016 11.615h6.29L92.542 33.43h-6.443l11.918-21.815z" style="fill:#fff;fill-rule:evenodd;stroke:none" transform="matrix(1.0001 0 0 .99809 -.008 .232)"/><path d="M98.016 11.615h6.29L92.542 33.43h-6.443l11.918-21.815z" style="stroke-width:1.31753135;stroke-miterlimit:10" transform="matrix(1.0001 0 0 .99809 -.008 .232)"/><path stroke="none" d="M110.139 11.55h6.29l-11.763 21.817h-6.445l11.918-21.817z" style="fill:#fff;fill-rule:evenodd;stroke:none" transform="matrix(1.0001 0 0 .99809 -.008 .232)"/><path d="M110.139 11.55h6.29l-11.763 21.817h-6.445l11.918-21.817h0z" style="stroke-width:1.31753135;stroke-miterlimit:10" transform="matrix(1.0001 0 0 .99809 -.008 .232)"/><path stroke="none" d="M128.486 11.718h-6.29l11.765 21.815h6.443l-11.918-21.815z" style="fill:#313390;fill-rule:evenodd;stroke:none" transform="matrix(1.0001 0 0 .99809 -.008 .232)"/><path d="M128.486 11.718h-6.29l11.765 21.815h6.443l-11.918-21.815h0z" style="stroke-width:1.31753135;stroke-miterlimit:10" transform="matrix(1.0001 0 0 .99809 -.008 .232)"/><path stroke="none" d="M121.973 11.714h6.289L116.498 33.53h-6.445l11.92-21.816z" style="fill:#fff;fill-rule:evenodd;stroke:none" transform="matrix(1.0001 0 0 .99809 -.008 .232)"/><path d="M121.973 11.714h6.289L116.498 33.53h-6.445l11.92-21.816h0z" style="stroke-width:1.31753135;stroke-miterlimit:10" transform="matrix(1.0001 0 0 .99809 -.008 .232)"/><path stroke="none" d="M44.648 11.651h-6.29l11.765 21.816h6.443L44.648 11.65z" style="fill:#313390;fill-rule:evenodd;stroke:none" transform="matrix(1.0001 0 0 .99809 -.008 .232)"/><path d="M44.648 11.651h-6.29l11.765 21.816h6.443L44.648 11.65z" style="stroke-width:1.31753135;stroke-miterlimit:10" transform="matrix(1.0001 0 0 .99809 -.008 .232)"/><path stroke="none" d="M32.868 11.435h-6.29L38.343 33.25h6.444L32.868 11.435z" style="fill:#313390;fill-rule:evenodd;stroke:none" transform="matrix(1.0001 0 0 .99809 -.008 .232)"/><path d="M32.868 11.435h-6.29L38.343 33.25h6.444L32.868 11.435h0z" style="stroke-width:1.31753135;stroke-miterlimit:10" transform="matrix(1.0001 0 0 .99809 -.008 .232)"/><path stroke="none" d="M50.223 11.431h6.29L44.75 33.247h-6.445l11.92-21.816z" style="fill:#fff;fill-rule:evenodd;stroke:none" transform="matrix(1.0001 0 0 .99809 -.008 .232)"/><path d="M50.223 11.431h6.29L44.75 33.247h-6.445l11.92-21.816h0z" style="stroke-width:1.31753135;stroke-miterlimit:10" transform="matrix(1.0001 0 0 .99809 -.008 .232)"/><path stroke="none" d="M20.957 11.435h-6.29L26.431 33.25h6.444L20.957 11.435z" style="fill:#313390;fill-rule:evenodd;stroke:none" transform="matrix(1.0001 0 0 .99809 -.008 .232)"/><path d="M20.957 11.435h-6.29L26.431 33.25h6.444L20.957 11.435z" style="stroke-width:1.31753135;stroke-miterlimit:10" transform="matrix(1.0001 0 0 .99809 -.008 .232)"/><path stroke="none" d="M38.34 11.435h6.29L32.867 33.25h-6.443L38.34 11.435z" style="fill:#fff;fill-rule:evenodd;stroke:none" transform="matrix(1.0001 0 0 .99809 -.008 .232)"/><path d="M38.34 11.435h6.29L32.867 33.25h-6.443L38.34 11.435h0z" style="stroke-width:1.31753135;stroke-miterlimit:10" transform="matrix(1.0001 0 0 .99809 -.008 .232)"/><path stroke="none" d="M26.585 11.435h6.29L21.112 33.25h-6.445l11.918-21.815z" style="fill:#fff;fill-rule:evenodd;stroke:none" transform="matrix(1.0001 0 0 .99809 -.008 .232)"/><path d="M26.585 11.435h6.29L21.112 33.25h-6.445l11.918-21.815h0z" style="stroke-width:1.31753135;stroke-miterlimit:10" transform="matrix(1.0001 0 0 .99809 -.008 .232)"/><path stroke="none" d="M140.383 11.606h-6.291l11.765 21.817h6.444l-11.918-21.817z" style="fill:#313390;fill-rule:evenodd;stroke:none" transform="matrix(1.0001 0 0 .99809 -.008 .232)"/><path d="M140.383 11.606h-6.291l11.765 21.817h6.444l-11.918-21.817h0z" style="stroke-width:1.31753135;stroke-miterlimit:10" transform="matrix(1.0001 0 0 .99809 -.008 .232)"/><path stroke="none" d="M134.063 11.498h6.289l-11.764 21.815h-6.447l11.921-21.815z" style="fill:#fff;fill-rule:evenodd;stroke:none" transform="matrix(1.0001 0 0 .99809 -.008 .232)"/><path d="M134.063 11.498h6.289l-11.764 21.815h-6.447l11.921-21.815z" style="stroke-width:1.31753135;stroke-miterlimit:10" transform="matrix(1.0001 0 0 .99809 -.008 .232)"/><path stroke="none" d="M145.893 11.663h6.29L140.42 33.48h-6.445l11.918-21.816z" style="fill:#fff;fill-rule:evenodd;stroke:none" transform="matrix(1.0001 0 0 .99809 -.008 .232)"/><path d="M145.893 11.663h6.29L140.42 33.48h-6.445l11.918-21.816h0z" style="stroke-width:1.31753135;stroke-miterlimit:10" transform="matrix(1.0001 0 0 .99809 -.008 .232)"/><path stroke="none" d="M68.89 209.933h-6.291l11.763 21.815h6.446l-11.919-21.815z" style="fill:#313390;fill-rule:evenodd;stroke:none" transform="matrix(1.0001 0 0 .99809 -.008 .232)"/><path d="M68.89 209.933h-6.291l11.763 21.815h6.446l-11.919-21.815h0z" style="stroke-width:1.31753135;stroke-miterlimit:10" transform="matrix(1.0001 0 0 .99809 -.008 .232)"/><path stroke="none" d="M56.994 210.044h-6.292l11.765 21.816h6.445l-11.918-21.816z" style="fill:#313390;fill-rule:evenodd;stroke:none" transform="matrix(1.0001 0 0 .99809 -.008 .232)"/><path d="M56.994 210.044h-6.292l11.765 21.816h6.445l-11.918-21.816h0z" style="stroke-width:1.31753135;stroke-miterlimit:10" transform="matrix(1.0001 0 0 .99809 -.008 .232)"/><path stroke="none" d="M62.567 209.825h6.292L57.095 231.64h-6.447l11.919-21.815z" style="fill:#fff;fill-rule:evenodd;stroke:none" transform="matrix(1.0001 0 0 .99809 -.008 .232)"/><path d="M62.567 209.825h6.292L57.095 231.64h-6.447l11.919-21.815h0z" style="stroke-width:1.31753135;stroke-miterlimit:10" transform="matrix(1.0001 0 0 .99809 -.008 .232)"/><path stroke="none" d="M80.949 210.093h-6.29l11.764 21.814h6.444L80.95 210.093z" style="fill:#313390;fill-rule:evenodd;stroke:none" transform="matrix(1.0001 0 0 .99809 -.008 .232)"/><path d="M80.949 210.093h-6.29l11.764 21.814h6.444L80.95 210.093z" style="stroke-width:1.31753135;stroke-miterlimit:10" transform="matrix(1.0001 0 0 .99809 -.008 .232)"/><path stroke="none" d="M74.4 209.99h6.29l-11.764 21.816H62.48L74.4 209.989z" style="fill:#fff;fill-rule:evenodd;stroke:none" transform="matrix(1.0001 0 0 .99809 -.008 .232)"/><path d="M74.4 209.99h6.29l-11.764 21.816H62.48L74.4 209.989z" style="stroke-width:1.31753135;stroke-miterlimit:10" transform="matrix(1.0001 0 0 .99809 -.008 .232)"/><path stroke="none" d="M116.8 210.082h-6.29l11.765 21.815h6.446l-11.92-21.815z" style="fill:#313390;fill-rule:evenodd;stroke:none" transform="matrix(1.0001 0 0 .99809 -.008 .232)"/><path d="M116.8 210.082h-6.29l11.765 21.815h6.446l-11.92-21.815z" style="stroke-width:1.31753135;stroke-miterlimit:10" transform="matrix(1.0001 0 0 .99809 -.008 .232)"/><path stroke="none" d="M92.846 209.98h-6.291l11.763 21.817h6.447l-11.92-21.817z" style="fill:#313390;fill-rule:evenodd;stroke:none" transform="matrix(1.0001 0 0 .99809 -.008 .232)"/><path d="M92.846 209.98h-6.291l11.763 21.817h6.447l-11.92-21.817h0z" style="stroke-width:1.31753135;stroke-miterlimit:10" transform="matrix(1.0001 0 0 .99809 -.008 .232)"/><path stroke="none" d="M86.523 209.873h6.292l-11.764 21.815h-6.445l11.917-21.815z" style="fill:#fff;fill-rule:evenodd;stroke:none" transform="matrix(1.0001 0 0 .99809 -.008 .232)"/><path d="M86.523 209.873h6.292l-11.764 21.815h-6.445l11.917-21.815z" style="stroke-width:1.31753135;stroke-miterlimit:10" transform="matrix(1.0001 0 0 .99809 -.008 .232)"/><path stroke="none" d="M104.906 210.194h-6.293l11.766 21.816h6.445l-11.918-21.816z" style="fill:#313390;fill-rule:evenodd;stroke:none" transform="matrix(1.0001 0 0 .99809 -.008 .232)"/><path d="M104.906 210.194h-6.293l11.766 21.816h6.445l-11.918-21.816z" style="stroke-width:1.31753135;stroke-miterlimit:10" transform="matrix(1.0001 0 0 .99809 -.008 .232)"/><path stroke="none" d="M98.355 210.038h6.291l-11.765 21.815h-6.444l11.918-21.815z" style="fill:#fff;fill-rule:evenodd;stroke:none" transform="matrix(1.0001 0 0 .99809 -.008 .232)"/><path d="M98.355 210.038h6.291l-11.765 21.815h-6.444l11.918-21.815z" style="stroke-width:1.31753135;stroke-miterlimit:10" transform="matrix(1.0001 0 0 .99809 -.008 .232)"/><path stroke="none" d="M110.48 209.972h6.29l-11.762 21.818h-6.446l11.917-21.818z" style="fill:#fff;fill-rule:evenodd;stroke:none" transform="matrix(1.0001 0 0 .99809 -.008 .232)"/><path d="M110.48 209.972h6.29l-11.762 21.818h-6.446l11.917-21.818z" style="stroke-width:1.31753135;stroke-miterlimit:10" transform="matrix(1.0001 0 0 .99809 -.008 .232)"/><path stroke="none" d="M128.652 210.208h-6.29l11.765 21.816h6.443l-11.918-21.816z" style="fill:#313390;fill-rule:evenodd;stroke:none" transform="matrix(1.0001 0 0 .99809 -.008 .232)"/><path d="M128.652 210.208h-6.29l11.765 21.816h6.443l-11.918-21.816h0z" style="stroke-width:1.31753135;stroke-miterlimit:10" transform="matrix(1.0001 0 0 .99809 -.008 .232)"/><path stroke="none" d="M122.313 210.138h6.289l-11.764 21.815h-6.445l11.92-21.815z" style="fill:#fff;fill-rule:evenodd;stroke:none" transform="matrix(1.0001 0 0 .99809 -.008 .232)"/><path d="M122.313 210.138h6.289l-11.764 21.815h-6.445l11.92-21.815z" style="stroke-width:1.31753135;stroke-miterlimit:10" transform="matrix(1.0001 0 0 .99809 -.008 .232)"/><path stroke="none" d="M44.988 210.074h-6.29l11.764 21.816h6.445l-11.919-21.816z" style="fill:#313390;fill-rule:evenodd;stroke:none" transform="matrix(1.0001 0 0 .99809 -.008 .232)"/><path d="M44.988 210.074h-6.29l11.764 21.816h6.445l-11.919-21.816z" style="stroke-width:1.31753135;stroke-miterlimit:10" transform="matrix(1.0001 0 0 .99809 -.008 .232)"/><path stroke="none" d="M32.999 210.116h-6.291l11.765 21.817h6.444l-11.918-21.817z" style="fill:#313390;fill-rule:evenodd;stroke:none" transform="matrix(1.0001 0 0 .99809 -.008 .232)"/><path d="M32.999 210.116h-6.291l11.765 21.817h6.444l-11.918-21.817h0z" style="stroke-width:1.31753135;stroke-miterlimit:10" transform="matrix(1.0001 0 0 .99809 -.008 .232)"/><path stroke="none" d="M50.564 209.854h6.289L45.09 231.67h-6.444l11.918-21.816z" style="fill:#fff;fill-rule:evenodd;stroke:none" transform="matrix(1.0001 0 0 .99809 -.008 .232)"/><path d="M50.564 209.854h6.289L45.09 231.67h-6.444l11.918-21.816h0z" style="stroke-width:1.31753135;stroke-miterlimit:10" transform="matrix(1.0001 0 0 .99809 -.008 .232)"/><path stroke="none" d="M140.548 210.098h-6.29l11.763 21.817h6.446l-11.92-21.817z" style="fill:#313390;fill-rule:evenodd;stroke:none" transform="matrix(1.0001 0 0 .99809 -.008 .232)"/><path d="M140.548 210.098h-6.29l11.763 21.817h6.446l-11.92-21.817z" style="stroke-width:1.31753135;stroke-miterlimit:10" transform="matrix(1.0001 0 0 .99809 -.008 .232)"/><path stroke="none" d="M134.228 209.99h6.29l-11.764 21.816h-6.447l11.92-21.817z" style="fill:#fff;fill-rule:evenodd;stroke:none" transform="matrix(1.0001 0 0 .99809 -.008 .232)"/><path d="M134.228 209.99h6.29l-11.764 21.816h-6.447l11.92-21.817h0z" style="stroke-width:1.31753135;stroke-miterlimit:10" transform="matrix(1.0001 0 0 .99809 -.008 .232)"/><path stroke="none" d="M146.059 210.153h6.289l-11.764 21.817h-6.444l11.919-21.817z" style="fill:#fff;fill-rule:evenodd;stroke:none" transform="matrix(1.0001 0 0 .99809 -.008 .232)"/><path d="M146.059 210.153h6.289l-11.764 21.817h-6.444l11.919-21.817z" style="stroke-width:1.31753135;stroke-miterlimit:10" transform="matrix(1.0001 0 0 .99809 -.008 .232)"/><path stroke="none" d="M38.573 209.896h6.29L33.1 231.714h-6.444l11.918-21.818z" style="fill:#fff;fill-rule:evenodd;stroke:none" transform="matrix(1.0001 0 0 .99809 -.008 .232)"/><path d="M38.573 209.896h6.29L33.1 231.714h-6.444l11.918-21.818h0z" style="stroke-width:1.31753135;stroke-miterlimit:10" transform="matrix(1.0001 0 0 .99809 -.008 .232)"/><path stroke="none" d="M20.995 210.147h-6.291l11.764 21.816h6.445l-11.918-21.816z" style="fill:#313390;fill-rule:evenodd;stroke:none" transform="matrix(1.0001 0 0 .99809 -.008 .232)"/><path d="M20.995 210.147h-6.291l11.764 21.816h6.445l-11.918-21.816z" style="stroke-width:1.31753135;stroke-miterlimit:10" transform="matrix(1.0001 0 0 .99809 -.008 .232)"/><path stroke="none" d="M26.569 209.926h6.29l-11.763 21.817h-6.447l11.92-21.817z" style="fill:#fff;fill-rule:evenodd;stroke:none" transform="matrix(1.0001 0 0 .99809 -.008 .232)"/><path d="M26.569 209.926h6.29l-11.763 21.817h-6.447l11.92-21.817h0z" style="stroke-width:1.31753135;stroke-miterlimit:10" transform="matrix(1.0001 0 0 .99809 -.008 .232)"/><path d="M166.83 235.545c0 3.774-3.086 6.87-6.871 6.87H7.111c-3.775 0-6.861-3.096-6.861-6.87V7.12C.25 3.34 3.336.25 7.11.25H159.96c3.785 0 6.871 3.09 6.871 6.87v228.425z" style="stroke:#000;stroke-width:.50045443;stroke-linecap:butt;stroke-linejoin:miter" transform="matrix(1.0001 0 0 .99809 -.008 .232)"/></g></svg>